<?xml version="1.0" standalone="no"?>
<!DOCTYPE svg PUBLIC "-//W3C//DTD SVG 20010904//EN"
 "http://www.w3.org/TR/2001/REC-SVG-20010904/DTD/svg10.dtd">
<svg version="1.0" xmlns="http://www.w3.org/2000/svg"
 width="300.000000pt" height="300.000000pt" viewBox="0 0 300.000000 300.000000"
 preserveAspectRatio="xMidYMid meet">

<g transform="translate(0.000000,300.000000) scale(0.100000,-0.100000)"
fill="#0054FA" stroke="none">
<path d="M1327 2990 c-105 -12 -267 -52 -360 -89 -211 -84 -357 -180 -523
-346 -220 -219 -347 -457 -415 -775 -32 -150 -32 -418 0 -570 65 -307 193
-542 416 -766 219 -220 457 -347 775 -415 150 -32 418 -32 570 0 307 65 542
193 766 416 220 219 347 457 415 775 32 150 32 418 0 570 -65 307 -193 542
-416 766 -220 221 -463 351 -775 414 -119 24 -333 34 -453 20z m-407 -679
c121 -31 244 -73 270 -91 16 -12 51 -47 76 -78 56 -69 89 -90 204 -132 109
-39 187 -88 288 -183 105 -98 127 -107 249 -107 117 0 198 -19 272 -63 94 -56
155 -148 169 -252 6 -49 13 -60 78 -127 80 -82 92 -101 141 -237 28 -77 34
-107 31 -151 -4 -59 -47 -164 -76 -186 -12 -9 -55 -13 -146 -14 -107 0 -133 3
-148 17 -25 23 -23 71 5 97 56 54 56 51 -16 121 -46 43 -67 70 -67 87 0 13 19
53 42 88 41 64 75 150 58 150 -5 0 -12 -9 -15 -20 -4 -11 -57 -73 -118 -138
-109 -114 -114 -121 -167 -242 -70 -159 -71 -160 -257 -160 -106 0 -135 3
-147 16 -27 27 -20 60 19 83 40 24 53 50 67 141 20 133 59 232 137 350 56 84
57 88 13 46 -22 -21 -57 -62 -79 -92 -56 -78 -68 -82 -147 -49 -37 15 -70 33
-75 39 -10 12 -51 122 -86 232 -13 40 -26 100 -30 135 -10 81 -23 55 -24 -46
-1 -53 7 -95 31 -170 45 -140 44 -227 -1 -320 -18 -36 -59 -99 -92 -140 -32
-41 -59 -81 -59 -88 0 -7 11 -24 25 -37 20 -19 25 -32 23 -60 l-3 -35 -160 0
-160 0 -6 65 c-4 36 -14 92 -23 125 -22 78 -15 131 35 266 64 173 69 230 33
370 -33 132 1 261 95 368 28 33 27 35 -10 14 -63 -37 -122 -125 -149 -226 -12
-45 -10 -124 6 -223 6 -38 3 -44 -39 -92 -31 -35 -48 -64 -52 -89 -18 -124
-51 -188 -135 -266 -53 -49 -74 -88 -65 -118 9 -27 -29 -59 -70 -59 -41 0 -42
-2 -14 -46 11 -19 19 -46 17 -61 l-3 -28 -154 -3 c-164 -3 -192 4 -206 47 -10
33 73 278 140 413 32 63 60 95 205 238 92 91 170 175 174 186 4 12 16 24 27
27 12 3 19 12 17 19 -3 9 -32 15 -92 18 -77 4 -90 8 -107 29 -10 13 -19 29
-19 37 0 8 -4 14 -9 14 -5 0 -23 12 -40 26 -47 39 -40 90 21 160 18 20 18 21
-2 39 -30 27 -25 60 15 90 35 27 85 114 85 148 0 39 44 99 85 118 45 21 65 22
115 10z"/>
</g>
</svg>
