<?xml version="1.0" standalone="no"?>
<!DOCTYPE svg PUBLIC "-//W3C//DTD SVG 20010904//EN"
 "http://www.w3.org/TR/2001/REC-SVG-20010904/DTD/svg10.dtd">
<svg version="1.0" xmlns="http://www.w3.org/2000/svg"
 width="200.000000pt" height="200.000000pt" viewBox="0 0 200.000000 200.000000"
 preserveAspectRatio="xMidYMid meet">

<g transform="translate(0.000000,200.000000) scale(0.100000,-0.100000)"
fill="#000000" stroke="none">
<path d="M371 1776 c-48 -17 -108 -71 -134 -119 -22 -42 -22 -43 -25 -630 -3
-512 -1 -596 13 -643 18 -63 61 -116 119 -147 41 -22 46 -22 635 -25 685 -3
668 -5 744 77 27 29 50 65 57 90 7 28 10 228 8 643 -3 667 1 628 -69 697 -69
70 -29 66 -704 68 -462 1 -618 -1 -644 -11z m544 -411 c66 -91 123 -165 126
-165 4 0 69 74 145 165 l139 165 89 0 90 0 -26 -27 c-73 -81 -348 -413 -348
-422 0 -5 97 -143 215 -305 118 -161 215 -297 215 -300 0 -3 -78 -6 -172 -5
l-173 0 -135 185 -134 185 -31 -36 c-16 -19 -86 -103 -155 -185 l-125 -149
-88 -1 -88 0 18 23 c10 12 99 119 198 236 99 117 180 218 179 225 -1 6 -91
133 -200 281 -110 149 -203 276 -208 283 -6 9 31 12 171 12 l178 0 120 -165z"/>
<path d="M666 1392 c16 -21 157 -213 314 -425 l285 -387 48 0 48 0 -20 28
c-11 15 -150 205 -309 422 l-289 395 -53 3 -53 3 29 -39z"/>
</g>
</svg>
